<svg width="48" height="48" viewBox="0 0 48 48" fill="none" xmlns="http://www.w3.org/2000/svg">
<g id="coupon 1">
<g id="Group">
<path id="Vector" d="M12.6904 21.1633C11.886 21.1633 11.207 22.0493 11.207 23.0969C11.207 24.1453 11.8859 25.0313 12.6904 25.0313C13.4948 25.0313 14.1745 24.1453 14.1745 23.0969C14.1745 22.0493 13.4948 21.1633 12.6904 21.1633Z" fill="#5A730E"/>
<path id="Vector_2" d="M25.6982 31.389C24.8938 31.389 24.2148 32.275 24.2148 33.3234C24.2148 34.371 24.8937 35.257 25.6982 35.257C26.5026 35.257 27.1824 34.371 27.1824 33.3234C27.1824 32.275 26.5026 31.389 25.6982 31.389Z" fill="#5A730E"/>
<path id="Vector_3" d="M34.1278 15.7234C21.0582 3.69751 21.7267 4.15685 20.6876 3.7532C19.211 3.16745 17.4539 3.47373 16.2402 4.59023L4.14079 15.7234C2.78031 16.9747 2 18.7553 2 20.6098V40.3248C2 42.6477 3.8804 44.5383 6.19126 44.5383H32.0764C34.3874 44.5383 36.2677 42.6477 36.2677 40.3248V20.6098C36.2677 18.7553 35.4874 16.9747 34.1278 15.7234ZM17.8868 11.497C17.965 10.7478 18.6521 10.2158 19.4209 10.3601C20.1562 10.5134 20.5703 11.2189 20.4333 11.876C20.2876 12.5761 19.629 13.022 18.9173 12.8884C18.2375 12.7466 17.8226 12.129 17.8868 11.497ZM8.62853 23.0969C8.62853 20.609 10.4505 18.5852 12.6901 18.5852C14.9306 18.5852 16.7525 20.609 16.7525 23.0969C16.7525 25.5848 14.9305 27.6094 12.6901 27.6094C10.4505 27.6094 8.62853 25.5848 8.62853 23.0969ZM16.0186 36.8176C15.1076 36.8176 14.4719 35.8837 14.8309 35.0293L21.1062 20.0727C21.3821 19.4162 22.1375 19.1068 22.794 19.3827C23.4506 19.6577 23.7591 20.4139 23.4841 21.0705L17.2079 36.027C17.0008 36.5203 16.523 36.8176 16.0186 36.8176ZM25.698 37.8352C23.4583 37.8352 21.6365 35.8113 21.6365 33.3234C21.6365 30.8355 23.4584 28.8109 25.698 28.8109C27.9376 28.8109 29.7603 30.8355 29.7603 33.3234C29.7603 35.8113 27.9376 37.8352 25.698 37.8352Z" fill="#5A730E"/>
<path id="Vector_4" d="M45.677 29.8808C41.4798 17.6627 39.1486 10.8695 39.1155 10.7923C38.3859 9.10282 36.9678 7.78883 35.2267 7.18813C35.1268 7.15418 35.7163 7.29736 26.3672 5.07922L35.873 13.8259C37.7628 15.5636 38.8465 18.036 38.8465 20.6098V37.3161L43.4839 35.3309C45.5816 34.4234 46.557 31.9871 45.677 29.8808Z" fill="#40520A"/>
</g>
</g>
</svg>
