<svg width="24" height="24" viewBox="0 0 24 24" fill="none" xmlns="http://www.w3.org/2000/svg">
<path d="M19.9999 8L11.9999 13L3.99994 8V6L11.9999 11L19.9999 6M19.9999 4H3.99994C2.88994 4 1.99994 4.89 1.99994 6V18C1.99994 18.5304 2.21065 19.0391 2.58573 19.4142C2.9608 19.7893 3.46951 20 3.99994 20H19.9999C20.5304 20 21.0391 19.7893 21.4142 19.4142C21.7892 19.0391 21.9999 18.5304 21.9999 18V6C21.9999 5.46957 21.7892 4.96086 21.4142 4.58579C21.0391 4.21071 20.5304 4 19.9999 4Z" fill="white"/>
</svg>
