<svg width="24" height="24" viewBox="0 0 24 24" fill="none" xmlns="http://www.w3.org/2000/svg">
<g id="eye open icon">
<path id="Vector" d="M11.9987 9.005C13.0596 9.005 14.077 9.42643 14.8271 10.1766C15.5773 10.9267 15.9987 11.9441 15.9987 13.005C15.9987 14.0659 15.5773 15.0833 14.8271 15.8334C14.077 16.5836 13.0596 17.005 11.9987 17.005C10.9379 17.005 9.92044 16.5836 9.17029 15.8334C8.42015 15.0833 7.99872 14.0659 7.99872 13.005C7.99872 11.9441 8.42015 10.9267 9.17029 10.1766C9.92044 9.42643 10.9379 9.005 11.9987 9.005ZM11.9987 5.5C16.6117 5.5 20.5947 8.65 21.6997 13.064C21.7481 13.2569 21.7179 13.4612 21.6157 13.6319C21.5135 13.8025 21.3477 13.9256 21.1547 13.974C20.9618 14.0224 20.7575 13.9922 20.5868 13.89C20.4162 13.7878 20.2931 13.6219 20.2447 13.429C19.7817 11.5925 18.7189 9.96306 17.2247 8.79913C15.7306 7.6352 13.8907 7.00338 11.9967 7.00384C10.1027 7.0043 8.26303 7.63701 6.76945 8.80167C5.27587 9.96632 4.21382 11.5962 3.75172 13.433C3.72789 13.5286 3.68545 13.6186 3.62685 13.6978C3.56824 13.777 3.49461 13.8439 3.41016 13.8946C3.3257 13.9454 3.23208 13.979 3.13463 13.9935C3.03718 14.0081 2.93782 14.0033 2.84222 13.9795C2.74662 13.9557 2.65665 13.9132 2.57744 13.8546C2.49824 13.796 2.43136 13.7224 2.38061 13.6379C2.32986 13.5535 2.29625 13.4599 2.28168 13.3624C2.26712 13.265 2.27189 13.1656 2.29572 13.07C2.83804 10.9073 4.08737 8.98777 5.84532 7.61627C7.60327 6.24476 9.76905 5.49991 11.9987 5.5Z" fill="#5A730E"/>
</g>
</svg>
