<svg width="28" height="28" viewBox="0 0 28 28" fill="none" xmlns="http://www.w3.org/2000/svg">
<path d="M10.0533 26.7198C11.3333 27.1065 12.6267 27.3332 14 27.3332C17.5362 27.3332 20.9276 25.9284 23.4281 23.4279C25.9286 20.9274 27.3333 17.5361 27.3333 13.9998C27.3333 12.2489 26.9884 10.5151 26.3184 8.89739C25.6483 7.27972 24.6662 5.80986 23.4281 4.57175C22.19 3.33363 20.7201 2.35151 19.1024 1.68144C17.4848 1.01138 15.7509 0.666504 14 0.666504C12.249 0.666504 10.5152 1.01138 8.89754 1.68144C7.27987 2.35151 5.81001 3.33363 4.5719 4.57175C2.07141 7.07223 0.666656 10.4636 0.666656 13.9998C0.666656 19.6665 4.22666 24.5332 9.25332 26.4532C9.13332 25.4132 9.01332 23.6932 9.25332 22.5065L10.7867 15.9198C10.7867 15.9198 10.4 15.1465 10.4 13.9198C10.4 12.0798 11.5467 10.7065 12.8533 10.7065C14 10.7065 14.5333 11.5465 14.5333 12.6265C14.5333 13.7732 13.7733 15.4132 13.3867 16.9865C13.16 18.2932 14.08 19.4398 15.4133 19.4398C17.7867 19.4398 19.6267 16.9065 19.6267 13.3332C19.6267 10.1332 17.3333 7.9465 14.04 7.9465C10.28 7.9465 8.06666 10.7465 8.06666 13.6932C8.06666 14.8398 8.43999 15.9998 9.05332 16.7598C9.17332 16.8398 9.17332 16.9465 9.13332 17.1465L8.74666 18.5998C8.74666 18.8265 8.59999 18.9065 8.37332 18.7465C6.66666 17.9998 5.67999 15.5732 5.67999 13.6132C5.67999 9.39984 8.66666 5.57317 14.4267 5.57317C19.0133 5.57317 22.5867 8.8665 22.5867 13.2398C22.5867 17.8265 19.7467 21.5065 15.68 21.5065C14.3867 21.5065 13.12 20.8132 12.6667 19.9998L11.7733 23.1598C11.4667 24.3065 10.6267 25.8398 10.0533 26.7598V26.7198Z" fill="white"/>
</svg>
