<svg width="28" height="20" viewBox="0 0 28 20" fill="none" xmlns="http://www.w3.org/2000/svg">
<path d="M11.3333 13.9998L18.2533 9.99984L11.3333 5.99984V13.9998ZM26.7467 3.55984C26.92 4.1865 27.04 5.0265 27.12 6.09317C27.2133 7.15984 27.2533 8.07984 27.2533 8.87984L27.3333 9.99984C27.3333 12.9198 27.12 15.0665 26.7467 16.4398C26.4133 17.6398 25.64 18.4132 24.44 18.7465C23.8133 18.9198 22.6667 19.0398 20.9067 19.1198C19.1733 19.2132 17.5867 19.2532 16.12 19.2532L14 19.3332C8.41332 19.3332 4.93332 19.1198 3.55999 18.7465C2.35999 18.4132 1.58666 17.6398 1.25332 16.4398C1.07999 15.8132 0.95999 14.9732 0.87999 13.9065C0.786657 12.8398 0.746656 11.9198 0.746656 11.1198L0.666656 9.99984C0.666656 7.07984 0.87999 4.93317 1.25332 3.55984C1.58666 2.35984 2.35999 1.5865 3.55999 1.25317C4.18666 1.07984 5.33332 0.959837 7.09332 0.879837C8.82666 0.786504 10.4133 0.746504 11.88 0.746504L14 0.666504C19.5867 0.666504 23.0667 0.879837 24.44 1.25317C25.64 1.5865 26.4133 2.35984 26.7467 3.55984Z" fill="white"/>
</svg>
