<svg width="40" height="32" viewBox="0 0 40 32" fill="none" xmlns="http://www.w3.org/2000/svg">
<path d="M8.09307 30.5477V28.6026C8.09307 27.8569 7.64374 27.3707 6.87358 27.3707C6.48857 27.3707 6.0714 27.5004 5.78257 27.9218C5.55805 27.5652 5.23721 27.3707 4.75588 27.3707C4.43489 27.3707 4.11419 27.4679 3.85737 27.8245V27.4355H3.18353V30.5477H3.85737V28.8295C3.85737 28.2785 4.1462 28.019 4.59553 28.019C5.04456 28.019 5.26937 28.3108 5.26937 28.8295V30.5477H5.94321V28.8295C5.94321 28.2785 6.26391 28.019 6.68107 28.019C7.1304 28.019 7.35491 28.3108 7.35491 28.8295V30.5477H8.09307ZM18.0722 27.4355H16.9813V26.4954H16.3075V27.4355H15.6978V28.0513H16.3073V29.4779C16.3073 30.1912 16.5962 30.6125 17.3663 30.6125C17.6552 30.6125 17.9759 30.5153 18.2007 30.3857L18.008 29.8021C17.8155 29.9317 17.591 29.9642 17.4305 29.9642C17.1097 29.9642 16.9813 29.7697 16.9813 29.4454V28.0513H18.0722V27.4355ZM23.7839 27.3706C23.3989 27.3706 23.1422 27.5652 22.9817 27.8245V27.4355H22.3079V30.5477H22.9817V28.7971C22.9817 28.2785 23.2063 27.9867 23.6234 27.9867C23.7518 27.9867 23.9123 28.0192 24.0406 28.0515L24.2331 27.4032C24.1048 27.3707 23.9122 27.3707 23.7839 27.3707V27.3706ZM15.1523 27.6949C14.8313 27.4679 14.3822 27.3707 13.9008 27.3707C13.1308 27.3707 12.6174 27.7597 12.6174 28.3756C12.6174 28.8944 13.0025 29.1861 13.6763 29.2834L13.9971 29.3159C14.3501 29.3806 14.5426 29.4779 14.5426 29.6401C14.5426 29.8669 14.286 30.029 13.8366 30.029C13.3875 30.029 13.0345 29.8669 12.8098 29.7049L12.489 30.2235C12.842 30.4829 13.3233 30.6125 13.8045 30.6125C14.703 30.6125 15.2165 30.1912 15.2165 29.6076C15.2165 29.0564 14.7993 28.7646 14.1575 28.6675L13.8366 28.635C13.5478 28.6025 13.3233 28.5378 13.3233 28.3433C13.3233 28.1163 13.5478 27.9867 13.9008 27.9867C14.286 27.9867 14.671 28.1487 14.8635 28.246L15.1523 27.6949ZM33.0573 27.3707C32.6722 27.3707 32.4155 27.5652 32.255 27.8245V27.4355H31.5812V30.5477H32.255V28.7971C32.255 28.2785 32.4797 27.9867 32.8967 27.9867C33.0252 27.9867 33.1857 28.0192 33.314 28.0515L33.5065 27.4032C33.3782 27.3707 33.1857 27.3707 33.0573 27.3707ZM24.4578 28.9916C24.4578 29.9317 25.0994 30.6125 26.0943 30.6125C26.5434 30.6125 26.8643 30.5153 27.1851 30.256L26.8643 29.7049C26.6076 29.8994 26.3509 29.9966 26.0621 29.9966C25.5166 29.9966 25.1316 29.6076 25.1316 28.9916C25.1316 28.4081 25.5166 28.019 26.0621 27.9867C26.3509 27.9867 26.6076 28.0838 26.8643 28.2785L27.1851 27.7273C26.8643 27.4679 26.5434 27.3707 26.0943 27.3707C25.0994 27.3707 24.4578 28.0515 24.4578 28.9916ZM30.6828 28.9916V27.4355H30.009V27.8245C29.7843 27.5329 29.4635 27.3707 29.0463 27.3707C28.18 27.3707 27.5061 28.0515 27.5061 28.9916C27.5061 29.9317 28.18 30.6125 29.0463 30.6125C29.4955 30.6125 29.8165 30.4505 30.009 30.1587V30.5477H30.6828V28.9916ZM28.212 28.9916C28.212 28.4405 28.565 27.9867 29.1425 27.9867C29.688 27.9867 30.0731 28.4081 30.0731 28.9916C30.0731 29.5427 29.688 29.9966 29.1425 29.9966C28.565 29.9641 28.212 29.5427 28.212 28.9916ZM20.158 27.3707C19.2595 27.3707 18.6177 28.019 18.6177 28.9916C18.6177 29.9642 19.2594 30.6125 20.19 30.6125C20.6392 30.6125 21.0885 30.4829 21.4415 30.1912L21.1206 29.7049C20.8639 29.8994 20.543 30.029 20.2222 30.029C19.805 30.029 19.3879 29.8346 19.2915 29.2833H21.5699V29.0241C21.602 28.019 21.0245 27.3707 20.158 27.3707ZM20.158 27.9542C20.5751 27.9542 20.864 28.2136 20.9281 28.6999H19.3237C19.3879 28.2785 19.6767 27.9542 20.158 27.9542ZM36.8757 28.9916V26.2036H36.2019V27.8245C35.9772 27.5329 35.6564 27.3707 35.2392 27.3707C34.3729 27.3707 33.699 28.0515 33.699 28.9916C33.699 29.9317 34.3729 30.6125 35.2392 30.6125C35.6885 30.6125 36.0094 30.4505 36.2019 30.1587V30.5477H36.8757V28.9916ZM34.405 28.9916C34.405 28.4405 34.7579 27.9867 35.3355 27.9867C35.881 27.9867 36.266 28.4081 36.266 28.9916C36.266 29.5427 35.881 29.9966 35.3355 29.9966C34.7579 29.9641 34.405 29.5427 34.405 28.9916ZM11.8793 28.9916V27.4355H11.2055V27.8245C10.9808 27.5329 10.6599 27.3707 10.2428 27.3707C9.37644 27.3707 8.7026 28.0515 8.7026 28.9916C8.7026 29.9317 9.37644 30.6125 10.2428 30.6125C10.6921 30.6125 11.0129 30.4505 11.2055 30.1587V30.5477H11.8793V28.9916ZM9.37644 28.9916C9.37644 28.4405 9.72944 27.9867 10.307 27.9867C10.8525 27.9867 11.2376 28.4081 11.2376 28.9916C11.2376 29.5427 10.8525 29.9966 10.307 29.9966C9.72944 29.9641 9.37644 29.5427 9.37644 28.9916Z" fill="white"/>
<path d="M18.9774 22.4628L19.2569 22.6906C17.3622 23.9663 15.1344 24.6445 12.8568 24.6391C6.46724 24.6391 1.29034 19.4214 1.29034 12.9727C1.29034 6.52985 6.46724 1.30621 12.8498 1.30621C15.2201 1.30621 17.4244 2.01906 19.2522 3.24766C19.1622 3.32315 19.0763 3.40352 18.9949 3.48843C16.2621 5.87247 14.6904 9.33404 14.6904 12.9727C14.6904 16.6113 16.2562 20.0728 18.9786 22.4628H18.9774ZM27.1514 1.30621C24.8739 1.29914 22.6455 1.97485 20.749 3.24766C20.8414 3.32792 20.9326 3.40817 21.0063 3.48843C22.3562 4.66486 23.4394 6.12081 24.1821 7.75734C24.9249 9.39387 25.3098 11.1726 25.3108 12.9727C25.3108 16.6065 23.745 20.0669 21.0227 22.4628C20.93 22.5394 20.8368 22.6153 20.7432 22.6906C22.6375 23.9671 24.8655 24.6454 27.1432 24.6391C33.5328 24.6391 38.7097 19.4214 38.7097 12.9727C38.7097 6.52985 33.534 1.30621 27.1514 1.30621ZM20.0006 3.80827C18.6236 4.89756 17.5103 6.28897 16.7453 7.87701C15.9802 9.46504 15.5834 11.208 15.585 12.9738C15.5827 14.7406 15.9791 16.4847 16.7442 18.0738C17.5093 19.6629 18.6229 21.0553 20.0006 22.1453C20.1538 22.0285 20.2941 21.9057 20.4391 21.7771C21.6891 20.6837 22.6913 19.3316 23.3776 17.8126C24.0638 16.2936 24.4181 14.6433 24.4162 12.9738C24.4176 11.2081 24.0207 9.46513 23.2557 7.87712C22.4907 6.28911 21.3775 4.89768 20.0006 3.80827Z" fill="white"/>
</svg>
