<svg width="26" height="20" viewBox="0 0 26 20" fill="none" xmlns="http://www.w3.org/2000/svg">
<path d="M11.0762 0V5.26316C11.0762 6.8616 10.7848 8.56725 10.2018 10.3801C9.63827 12.1735 8.80269 13.9181 7.69507 15.614C6.60688 17.2904 5.2855 18.7524 3.73094 20L0 16.9591C1.22422 15.2047 2.28326 13.3821 3.17713 11.4912C4.09043 9.5809 4.54709 7.54386 4.54709 5.38012V0H11.0762ZM26 0V5.26316C26 6.8616 25.7085 8.56725 25.1256 10.3801C24.562 12.1735 23.7265 13.9181 22.6188 15.614C21.5306 17.2904 20.2093 18.7524 18.6547 20L14.9238 16.9591C16.148 15.2047 17.207 13.3821 18.1009 11.4912C19.0142 9.5809 19.4709 7.54386 19.4709 5.38012V0H26Z" fill="#5A730E"/>
</svg>
