<svg width="64" height="64" viewBox="0 0 64 64" fill="none" xmlns="http://www.w3.org/2000/svg">
<g clip-path="url(#clip0_198_219)">
<path d="M61.5565 11.8373L22.3596 3.5421C20.7012 3.19125 19.0575 4.26117 18.7066 5.91953L17.9619 10.7051L63.1886 20.2758L63.9333 15.4902C64.2841 13.8325 63.2148 12.1882 61.5565 11.8373Z" fill="#5A730E"/>
<path d="M45.0731 21.2907C44.6153 19.642 42.8923 18.6674 41.2441 19.1245L33.8031 21.1902L16.2613 17.4778L14.3321 26.5931L2.27829 29.9387C0.630175 30.3959 -0.344367 32.1189 0.112734 33.7671L6.90577 58.2461C7.36361 59.8942 9.0867 60.8693 10.7348 60.4116L49.7006 49.5982C51.3487 49.1403 52.3233 47.418 51.8662 45.7691L50.7002 41.5668L55.0703 42.4908C56.7286 42.8422 58.3724 41.7723 58.7232 40.114L61.4881 27.0486L45.7467 23.7175L45.0731 21.2907ZM49.5731 33.7319L50.5368 29.1774C50.6815 28.4955 51.3577 28.0556 52.0396 28.1996L56.594 29.1639C57.2766 29.3087 57.7165 29.9841 57.5725 30.6667L56.6088 35.2212C56.4641 35.9031 55.788 36.3436 55.106 36.199L50.5515 35.2353C49.8684 35.09 49.4284 34.4138 49.5731 33.7319ZM2.95636 32.3815L13.7397 29.39L39.1829 22.3294L41.9208 21.5687C41.9708 21.5552 42.0207 21.5488 42.0694 21.5488C42.289 21.5488 42.5516 21.6929 42.6284 21.9689L42.9498 23.1266L43.957 26.7558L3.88479 37.8759L2.55615 33.0897C2.47291 32.7894 2.65612 32.4648 2.95636 32.3815ZM49.4227 46.4464C49.4739 46.6322 49.4201 46.7858 49.3657 46.8819C49.3119 46.9779 49.2082 47.1035 49.0224 47.1546L10.0574 57.9681C10.0081 57.9816 9.9575 57.9886 9.90877 57.9886C9.68916 57.9886 9.42657 57.8439 9.34981 57.5679L5.38764 43.2897L45.4599 32.1689L47.9039 40.975L49.4227 46.4464Z" fill="#5A730E"/>
<path d="M16.3535 47.4235C16.1665 46.7512 15.4647 46.3542 14.7924 46.5406L10.2417 47.8038C9.57005 47.9902 9.17245 48.6926 9.35943 49.3649L10.6221 53.9149C10.8091 54.5873 11.5109 54.9842 12.1832 54.7972L16.7338 53.5346C17.4061 53.3482 17.8031 52.6458 17.6167 51.9735L16.3535 47.4235Z" fill="#5A730E"/>
</g>
<defs>
<clipPath id="clip0_198_219">
<rect width="64" height="64" fill="white"/>
</clipPath>
</defs>
</svg>
