<svg width="96" height="32" viewBox="0 0 96 32" fill="none" xmlns="http://www.w3.org/2000/svg">
<g clip-path="url(#clip0_801_1497)">
<rect x="1" y="-3" width="95" height="35" fill="white"/>
<path d="M89.6 48H6.4C4.70261 48 3.07475 47.3257 1.87452 46.1255C0.674284 44.9253 0 43.2974 0 41.6L0 -9.6C0 -11.2974 0.674284 -12.9253 1.87452 -14.1255C3.07475 -15.3257 4.70261 -16 6.4 -16H89.6C91.2974 -16 92.9253 -15.3257 94.1255 -14.1255C95.3257 -12.9253 96 -11.2974 96 -9.6V41.6C96 43.2974 95.3257 44.9253 94.1255 46.1255C92.9253 47.3257 91.2974 48 89.6 48ZM37.4187 11.5333C37.3456 11.5343 37.2737 11.5516 37.2082 11.5839C37.1427 11.6162 37.0852 11.6627 37.04 11.72C36.9349 11.827 36.8748 11.9701 36.872 12.12C36.872 12.176 37.1333 12.9733 37.6933 14.608L38.904 18.144L39.4667 19.792C40.0978 21.6409 40.4276 22.624 40.456 22.7413C39.2145 24.2784 38.0921 25.9081 37.0987 27.616L36.9973 27.8027L36.992 27.8693C36.992 28.136 37.208 28.3547 37.4773 28.3547L37.5493 28.3493H37.5467H40.7947C40.9461 28.3484 41.0948 28.309 41.2268 28.2348C41.3588 28.1607 41.4698 28.0542 41.5493 27.9253L41.552 27.9227L52.304 12.4053C52.3605 12.3309 52.3914 12.2401 52.392 12.1467L52.3893 12.1067V12.1093C52.3857 11.9596 52.3257 11.8168 52.2213 11.7093C52.1765 11.6522 52.1195 11.6058 52.0544 11.5735C51.9894 11.5412 51.9179 11.5238 51.8453 11.5227H48.5947C48.4429 11.5236 48.2938 11.563 48.1614 11.6372C48.029 11.7113 47.9175 11.8178 47.8373 11.9467L47.8347 11.9493L43.3547 18.5253L41.5013 12.2C41.4538 12.0073 41.3432 11.8359 41.1872 11.7132C41.0311 11.5905 40.8385 11.5234 40.64 11.5227L40.5707 11.5253H40.5733L37.4187 11.5333ZM74.6933 11.2373H74.624C72.6027 11.2373 70.7867 12.1147 69.5333 13.5067L69.528 13.512C68.1572 14.9297 67.3921 16.8253 67.3947 18.7973V18.8693V18.8667C67.3893 18.944 67.3893 19.0373 67.3893 19.128C67.3893 20.56 67.9467 21.864 68.8533 22.832L68.8507 22.8293C69.3664 23.3317 69.9803 23.7222 70.6539 23.9764C71.3275 24.2306 72.0463 24.343 72.7653 24.3067H72.752C73.6507 24.296 74.504 24.112 75.2827 23.7813L75.24 23.7973C76.0267 23.5013 76.6933 23.04 77.2187 22.4533L77.224 22.448C77.1973 22.6 77.168 22.728 77.1333 22.8507L77.1387 22.824C77.091 22.9873 77.0624 23.1555 77.0533 23.3253V23.3307C77.0533 23.7787 77.2373 24.0053 77.6027 24.0053H80.512C80.6256 24.0155 80.7401 24.0028 80.8487 23.968C80.9573 23.9332 81.0579 23.877 81.1444 23.8027C81.2309 23.7283 81.3016 23.6374 81.3524 23.5353C81.4032 23.4331 81.433 23.3218 81.44 23.208V23.2053L83.168 12.2C83.1843 12.117 83.1815 12.0313 83.1598 11.9495C83.1381 11.8678 83.098 11.792 83.0427 11.728C82.9947 11.6619 82.9317 11.6081 82.859 11.5711C82.7862 11.534 82.7057 11.5147 82.624 11.5147H79.416C79.024 11.5147 78.776 11.9813 78.696 12.9067C78.2266 12.3044 77.6093 11.8339 76.9041 11.5409C76.199 11.2479 75.43 11.1424 74.672 11.2347L74.6933 11.232V11.2373ZM26.792 11.2373H26.7173C24.6987 11.2373 22.8827 12.1147 21.6347 13.5067L21.6293 13.512C20.2586 14.9297 19.4934 16.8253 19.496 18.7973V18.8693V18.8667C19.4607 19.5915 19.5719 20.316 19.823 20.9969C20.0741 21.6777 20.4599 22.301 20.9573 22.8293L20.9547 22.8267C21.8987 23.744 23.1893 24.3093 24.6133 24.3093L24.8693 24.304H24.856C25.7413 24.2907 26.5813 24.1067 27.3467 23.7787L27.304 23.7947C28.1013 23.4907 28.7787 23.032 29.3253 22.448L29.328 22.4453C29.2293 22.7067 29.168 23.0107 29.16 23.3253V23.3307C29.16 23.7787 29.3467 24.0053 29.7093 24.0053H32.616C32.7296 24.0155 32.8441 24.0028 32.9527 23.968C33.0613 23.9332 33.1619 23.877 33.2484 23.8027C33.3349 23.7283 33.4056 23.6374 33.4564 23.5353C33.5072 23.4331 33.537 23.3218 33.544 23.208V23.2053L35.2747 12.2C35.2892 12.1176 35.2853 12.033 35.2631 11.9523C35.241 11.8716 35.2012 11.7968 35.1467 11.7333C35.0987 11.6673 35.0357 11.6135 34.963 11.5764C34.8902 11.5393 34.8097 11.52 34.728 11.52H31.52C31.128 11.52 30.88 11.9867 30.8027 12.912C30.3284 12.3145 29.71 11.8474 29.0057 11.5545C28.3013 11.2615 27.5341 11.1524 26.776 11.2373L26.7973 11.2347L26.792 11.2373ZM86.9653 5.33333L86.9227 5.33067C86.7954 5.33022 86.6726 5.3777 86.5787 5.46368C86.4848 5.54965 86.4267 5.66782 86.416 5.79467L83.6747 23.3387C83.6522 23.4231 83.6519 23.5119 83.6738 23.5965C83.6958 23.6811 83.7393 23.7585 83.8 23.8213C83.8504 23.8811 83.9133 23.929 83.9843 23.9617C84.0552 23.9944 84.1325 24.0111 84.2107 24.0107H87.0107L87.096 24.016C87.3082 24.016 87.5117 23.9317 87.6617 23.7817C87.8117 23.6317 87.896 23.4282 87.896 23.216V23.2107L90.632 5.97067L90.6347 5.912C90.6345 5.75995 90.5849 5.61208 90.4933 5.49067V5.49334C90.4454 5.44225 90.3876 5.40148 90.3234 5.3735C90.2592 5.34554 90.19 5.33096 90.12 5.33067L90.08 5.33333H86.9653ZM55.8453 5.33333C55.7309 5.31832 55.6145 5.3276 55.5039 5.36058C55.3932 5.39355 55.2908 5.44948 55.2032 5.52472C55.1157 5.59995 55.045 5.6928 54.9957 5.79721C54.9464 5.90162 54.9197 6.01524 54.9173 6.13067L52.1787 23.336C52.1646 23.4178 52.1685 23.5017 52.1901 23.5818C52.2118 23.662 52.2506 23.7364 52.304 23.8C52.3511 23.8664 52.4135 23.9204 52.4859 23.9575C52.5583 23.9946 52.6386 24.0138 52.72 24.0133H56.2C56.3562 24.0132 56.5074 23.9589 56.628 23.8597C56.7486 23.7605 56.8311 23.6225 56.8613 23.4693V23.464L57.6213 18.5733C57.644 18.3592 57.7504 18.1627 57.9173 18.0267C58.0993 17.8796 58.3204 17.7847 58.552 17.752H58.56C58.776 17.712 59.024 17.6907 59.2773 17.688C59.5013 17.688 59.7707 17.7013 60.08 17.7307C60.4181 17.7696 60.7583 17.7874 61.0987 17.784C63.0524 17.7872 64.935 17.0507 66.368 15.7227L66.3627 15.728C67.0772 14.9702 67.629 14.0742 67.984 13.095C68.339 12.1158 68.4896 11.0743 68.4267 10.0347V10.056C68.4841 9.36848 68.3662 8.67763 68.084 8.04805C67.8019 7.41847 67.3647 6.87071 66.8133 6.456L66.8027 6.448C65.5302 5.64333 64.0395 5.25297 62.536 5.33067H62.552L55.8453 5.33333ZM7.89333 5.33333C7.78178 5.32137 7.66896 5.333 7.5622 5.36747C7.45543 5.40194 7.35711 5.45848 7.27362 5.53342C7.19013 5.60836 7.12333 5.70003 7.07757 5.80246C7.03181 5.90489 7.00811 6.01581 7.008 6.128V6.13334L4.26667 23.3387C4.25237 23.4205 4.25618 23.5044 4.27784 23.5846C4.29949 23.6647 4.33846 23.7392 4.392 23.8027C4.43911 23.869 4.50151 23.923 4.57392 23.9602C4.64633 23.9973 4.72662 24.0165 4.808 24.016H8.01867C8.13313 24.031 8.24948 24.0217 8.36012 23.9888C8.47076 23.9558 8.5732 23.8999 8.66076 23.8246C8.74833 23.7494 8.81905 23.6565 8.86831 23.5521C8.91758 23.4477 8.94427 23.3341 8.94667 23.2187L9.70667 18.5813C9.72977 18.3679 9.83496 18.1719 10 18.0347C10.182 17.8876 10.403 17.7927 10.6347 17.76H10.6427C10.8786 17.7184 11.1177 17.697 11.3573 17.696H11.36C11.584 17.696 11.8507 17.7093 12.16 17.7387C12.4972 17.7774 12.8366 17.7953 13.176 17.792C15.2107 17.792 17.0613 17.0107 18.448 15.7307L18.4427 15.736C19.157 14.9781 19.7086 14.0819 20.0635 13.1028C20.4185 12.1237 20.5693 11.0823 20.5067 10.0427V10.064C20.5641 9.37648 20.4462 8.68563 20.164 8.05605C19.8819 7.42647 19.4447 6.87871 18.8933 6.464L18.8827 6.456C17.6157 5.65429 16.1322 5.26316 14.6347 5.336H14.6507L7.89333 5.33333ZM74.5173 20.8933L74.3893 20.896C73.708 20.8966 73.0485 20.6557 72.528 20.216L72.5333 20.2187C72.2927 19.997 72.1006 19.7277 71.9694 19.428C71.8381 19.1283 71.7704 18.8046 71.7707 18.4773L71.7733 18.3573V18.2853C71.7733 17.288 72.176 16.384 72.8293 15.728C73.472 15.0693 74.368 14.6613 75.36 14.6613H75.448H75.4427L75.5333 14.6587C76.2507 14.6587 76.904 14.9227 77.4053 15.3573L77.4027 15.3547C77.6503 15.5839 77.8478 15.862 77.9827 16.1713C78.1176 16.4806 78.1871 16.8145 78.1867 17.152L78.184 17.28V17.2747V17.3387C78.184 18.3227 77.776 19.2133 77.1173 19.8453C76.7846 20.1768 76.3899 20.4395 75.9557 20.6184C75.5215 20.7973 75.0563 20.8889 74.5867 20.888H74.52L74.5173 20.8933ZM26.5733 20.8933L26.44 20.896C25.7413 20.896 25.0987 20.64 24.608 20.216L24.6107 20.2187C24.3762 19.9944 24.1896 19.725 24.0622 19.4266C23.9347 19.1282 23.8691 18.8071 23.8693 18.4827L23.872 18.3573V18.2853C23.872 17.288 24.2747 16.384 24.928 15.728C25.5707 15.0693 26.464 14.6613 27.456 14.6613H27.5493H27.544L27.6347 14.6587C28.352 14.6587 29.0053 14.9227 29.5067 15.3573L29.504 15.3547C29.7509 15.5838 29.9478 15.8615 30.0823 16.1703C30.2168 16.4792 30.2859 16.8125 30.2853 17.1493L30.2827 17.28V17.2747V17.368C30.2827 18.352 29.8747 19.2373 29.216 19.8693C28.5325 20.5271 27.6206 20.8942 26.672 20.8933H26.5733ZM58.3253 14.0667L59.0427 9.55733C59.0484 9.49094 59.0671 9.42633 59.0978 9.3672C59.1285 9.30806 59.1706 9.25557 59.2216 9.21271C59.2727 9.16986 59.3316 9.13749 59.3952 9.11747C59.4587 9.09744 59.5256 9.09015 59.592 9.096H60.3493L60.512 9.09333C60.9733 9.09333 61.4293 9.12533 61.8747 9.18667L61.824 9.18133C62.2373 9.256 62.5973 9.44267 62.88 9.70933C63.0411 9.86158 63.1694 10.0451 63.2569 10.2487C63.3445 10.4523 63.3896 10.6717 63.3893 10.8933L63.3867 10.9947V10.9893C63.4427 11.4348 63.3878 11.8873 63.2268 12.3064C63.0659 12.7256 62.8038 13.0985 62.464 13.392L62.4613 13.3947C61.6116 13.8796 60.6374 14.1023 59.6613 14.0347H59.6773L58.3307 14.0773L58.3253 14.0667ZM10.3813 14.0667L11.0987 9.55733C11.104 9.49081 11.1225 9.42602 11.1531 9.36672C11.1837 9.30741 11.2258 9.25477 11.2769 9.21186C11.328 9.16894 11.3871 9.1366 11.4508 9.11671C11.5145 9.09682 11.5816 9.08978 11.648 9.096H12.4453C13.2991 9.03345 14.1538 9.20494 14.9173 9.592L14.8907 9.57867C15.3947 9.90133 15.5653 10.5867 15.3973 11.6213C15.3845 12.0076 15.2789 12.3851 15.0895 12.7221C14.9002 13.059 14.6326 13.3455 14.3093 13.5573L14.3013 13.5627C13.0374 14.0281 11.6841 14.1995 10.344 14.064L10.3813 14.0667Z" fill="#5A3F0E"/>
</g>
<defs>
<clipPath id="clip0_801_1497">
<rect width="96" height="32" fill="white"/>
</clipPath>
</defs>
</svg>
