<svg width="98" height="98" viewBox="0 0 98 98" fill="none" xmlns="http://www.w3.org/2000/svg">
<g filter="url(#filter0_d_420_3364)">
<rect x="32.5" y="28.5" width="33" height="33" fill="#1A383F"/>
<path d="M39.834 59.6684C39.834 60.4595 40.7092 60.9374 41.3747 60.5095L64.1921 45.8412C64.8045 45.4476 64.8045 44.5525 64.1921 44.1589L41.3747 29.4905C40.7092 29.0627 39.834 29.5405 39.834 30.3317V59.6684ZM49.0006 81.6667C43.9284 81.6667 39.1618 80.7036 34.7006 78.7774C30.2395 76.8511 26.359 74.2393 23.059 70.9417C19.759 67.6417 17.1471 63.7611 15.2233 59.3C13.2995 54.8389 12.3364 50.0723 12.334 45C12.334 39.9278 13.2971 35.1611 15.2233 30.7C17.1495 26.2389 19.7614 22.3584 23.059 19.0584C26.359 15.7584 30.2395 13.1465 34.7006 11.2227C39.1618 9.29893 43.9284 8.33582 49.0006 8.33337C54.0729 8.33337 58.8395 9.29649 63.3006 11.2227C67.7618 13.1489 71.6423 15.7608 74.9423 19.0584C78.2423 22.3584 80.8554 26.2389 82.7816 30.7C84.7079 35.1611 85.6698 39.9278 85.6673 45C85.6673 50.0723 84.7042 54.8389 82.778 59.3C80.8518 63.7611 78.2399 67.6417 74.9423 70.9417C71.6423 74.2417 67.7618 76.8548 63.3006 78.781C58.8395 80.7073 54.0729 81.6691 49.0006 81.6667Z" fill="#F3F7F2"/>
<path d="M85.1673 45V44.9998C85.1697 39.9928 84.2206 35.294 82.3226 30.8982C80.4204 26.4927 77.8423 22.6655 74.5889 19.4121C71.3354 16.1609 67.5081 13.584 63.1024 11.6817C58.7067 9.78376 54.0079 8.8334 49.0009 8.83337L85.1673 45ZM85.1673 45C85.1673 50.0071 84.217 54.706 82.3189 59.1018C80.4167 63.5074 77.8398 67.3347 74.5888 70.5882M85.1673 45L74.5888 70.5882M49.0006 81.1667H49.0009C54.0079 81.1691 58.7067 80.22 63.1024 78.322C67.5079 76.4198 71.3351 73.8417 74.5886 70.5883C74.5887 70.5882 74.5887 70.5882 74.5888 70.5882M49.0006 81.1667L74.5888 70.5882M49.0006 81.1667C43.9935 81.1667 39.2946 80.2163 34.8989 78.3183M49.0006 81.1667L34.8989 78.3183M34.8989 78.3183C30.4933 76.4161 26.666 73.8392 23.4125 70.5882M34.8989 78.3183L23.4125 70.5882M23.4125 70.5882C20.1591 67.3347 17.5822 63.5075 15.6824 59.102C13.7868 54.7062 12.8364 50.0072 12.834 45L23.4125 70.5882ZM15.6824 30.8982C13.7844 35.294 12.834 39.9928 12.834 44.9998L15.6824 30.8982ZM15.6824 30.8982C17.5846 26.4926 20.1616 22.6653 23.4127 19.4118M15.6824 30.8982L23.4127 19.4118M23.4127 19.4118C26.6661 16.1584 30.4932 13.5816 34.8986 11.6818M23.4127 19.4118L34.8986 11.6818M34.8986 11.6818C39.2945 9.78621 43.9935 8.83582 49.0006 8.83337L34.8986 11.6818ZM41.6451 60.9301L64.4625 46.2618C65.381 45.6713 65.381 44.3287 64.4625 43.7383L41.6451 29.0699C40.6469 28.4282 39.334 29.145 39.334 30.3317V59.6684C39.334 60.8551 40.6469 61.5719 41.6451 60.9301Z" stroke="#5A730E" stroke-opacity="0.4"/>
</g>
<defs>
<filter id="filter0_d_420_3364" x="-7" y="-7" width="112" height="112" filterUnits="userSpaceOnUse" color-interpolation-filters="sRGB">
<feFlood flood-opacity="0" result="BackgroundImageFix"/>
<feColorMatrix in="SourceAlpha" type="matrix" values="0 0 0 0 0 0 0 0 0 0 0 0 0 0 0 0 0 0 127 0" result="hardAlpha"/>
<feOffset dy="4"/>
<feGaussianBlur stdDeviation="6"/>
<feComposite in2="hardAlpha" operator="out"/>
<feColorMatrix type="matrix" values="0 0 0 0 0.10284 0 0 0 0 0.220095 0 0 0 0 0.245833 0 0 0 0.25 0"/>
<feBlend mode="normal" in2="BackgroundImageFix" result="effect1_dropShadow_420_3364"/>
<feBlend mode="normal" in="SourceGraphic" in2="effect1_dropShadow_420_3364" result="shape"/>
</filter>
</defs>
</svg>
