<svg width="80" height="80" viewBox="0 0 80 80" fill="none" xmlns="http://www.w3.org/2000/svg">
<g opacity="0.2">
<path d="M36.5729 32.8933C36.4129 32.4133 35.9995 32.0533 35.4929 31.9866L33.1595 31.6533L32.1195 29.5333C31.6662 28.6266 30.1729 28.6266 29.7329 29.5333L28.6929 31.6533L26.3595 31.9866C25.8529 32.0533 25.4395 32.4133 25.2795 32.8933C25.1329 33.3733 25.2529 33.9066 25.6262 34.2666L27.3062 35.9066L26.9062 38.2266C26.8262 38.7199 27.0262 39.2266 27.4395 39.5199C27.6662 39.6933 27.9462 39.7866 28.2262 39.7866C28.4395 39.7866 28.6529 39.7333 28.8395 39.6266L30.9195 38.5333L33.0129 39.6266C33.4529 39.8666 33.9995 39.8266 34.4129 39.5199C34.8262 39.2266 35.0262 38.7199 34.9462 38.2266L34.5462 35.9066L36.2262 34.2666C36.5995 33.9066 36.7195 33.3733 36.5729 32.8933Z" fill="#1A383F"/>
<path d="M55.1203 22.2266C54.9603 21.7466 54.547 21.3866 54.0536 21.32L51.7203 20.9866L50.6803 18.8666C50.227 17.96 48.7336 17.96 48.2803 18.8666L47.2403 20.9866L44.9203 21.32C44.4136 21.3866 44.0003 21.7466 43.8403 22.2266C43.6803 22.7066 43.8136 23.24 44.1736 23.6L45.867 25.24L45.467 27.56C45.3736 28.0533 45.587 28.56 46.0003 28.8533C46.4003 29.16 46.947 29.2 47.4003 28.96L49.4803 27.8666L51.5603 28.96C51.7603 29.0666 51.9736 29.12 52.187 29.12C52.467 29.12 52.7336 29.0266 52.9736 28.8533C53.3736 28.56 53.587 28.0533 53.4936 27.56L53.107 25.24L54.787 23.6C55.147 23.24 55.2803 22.7066 55.1203 22.2266Z" fill="#1A383F"/>
<path d="M72.8547 10.7334C72.6947 10.2534 72.2814 9.89336 71.7747 9.82669L69.4547 9.48003L68.4147 7.37336C67.9614 6.46669 66.468 6.46669 66.0147 7.37336L64.9747 9.48003L62.6414 9.82669C62.148 9.89336 61.7214 10.2534 61.5747 10.7334C61.4147 11.2134 61.548 11.7467 61.908 12.0934L63.588 13.7334L63.2014 16.0534C63.108 16.56 63.3214 17.0667 63.7214 17.36C64.1347 17.6667 64.6814 17.7067 65.1347 17.4667L67.2147 16.3734L69.2947 17.4667C69.4947 17.5734 69.708 17.6134 69.9214 17.6134C70.188 17.6134 70.468 17.5334 70.6947 17.36C71.108 17.0667 71.3214 16.56 71.228 16.0534L70.828 13.7334L72.5214 12.0934C72.8814 11.76 73.0147 11.2134 72.8547 10.7334Z" fill="#1A383F"/>
<path d="M18.0129 43.56C17.8529 43.08 17.4396 42.72 16.9329 42.6533L14.6129 42.32L13.5729 40.2C13.3462 39.7467 12.8796 39.4667 12.3729 39.4667C11.8662 39.4667 11.3996 39.7467 11.1729 40.2L10.1329 42.32L7.79956 42.6533C7.30622 42.72 6.89289 43.08 6.73289 43.56C6.57289 44.04 6.70622 44.5733 7.06622 44.9333L8.74622 46.5733L8.35956 48.8933C8.26622 49.3867 8.47956 49.8933 8.87956 50.1867C9.11956 50.36 9.38622 50.4533 9.66622 50.4533C9.87956 50.4533 10.0929 50.4 10.2929 50.2933L12.3729 49.2L14.4529 50.2933C14.9062 50.5333 15.4529 50.4933 15.8529 50.1867C16.2662 49.8933 16.4796 49.3867 16.3862 48.8933L15.9862 46.5733L17.6796 44.9333C18.0396 44.5733 18.1729 44.04 18.0129 43.56Z" fill="#1A383F"/>
<path d="M24.8125 49.12V71.96C24.8125 72.7066 25.3992 73.2933 26.1458 73.2933H35.7058C36.4525 73.2933 37.0392 72.7066 37.0392 71.96V49.12C37.0392 48.3733 36.4525 47.7866 35.7058 47.7866H26.1458C25.3992 47.7866 24.8125 48.3733 24.8125 49.12Z" fill="#1A383F"/>
<path d="M18.908 71.96V58.9867C18.908 58.2533 18.308 57.6533 17.5746 57.6533H8.0013C7.26797 57.6533 6.66797 58.2533 6.66797 58.9867V71.96C6.66797 72.7067 7.26797 73.2933 8.0013 73.2933H17.5746C18.308 73.2933 18.908 72.7067 18.908 71.96Z" fill="#1A383F"/>
<path d="M42.9453 39.96V71.96C42.9453 72.7067 43.5453 73.2934 44.2786 73.2934H53.852C54.5853 73.2934 55.1853 72.7067 55.1853 71.96V39.96C55.1853 39.2267 54.5853 38.6267 53.852 38.6267H44.2786C43.5453 38.6267 42.9453 39.2267 42.9453 39.96Z" fill="#1A383F"/>
<path d="M72.0004 23.2667H62.4271C61.6938 23.2667 61.0938 23.8667 61.0938 24.6001V71.9601C61.0938 72.7067 61.6938 73.2934 62.4271 73.2934H72.0004C72.7338 73.2934 73.3338 72.7067 73.3338 71.9601V24.6001C73.3338 23.8667 72.7338 23.2667 72.0004 23.2667Z" fill="#1A383F"/>
</g>
</svg>
