<svg width="108" height="32" viewBox="0 0 108 32" fill="none" xmlns="http://www.w3.org/2000/svg">
<path d="M9.57669 14.8084C8.73644 14.4789 7.88177 14.1823 7.03328 13.8755C7.00856 13.9332 6.98591 13.9908 6.96326 14.0464C7.87559 14.5283 8.78999 15.0144 9.78264 15.5395C9.72497 15.1977 9.84236 14.9134 9.57669 14.8084Z" fill="white"/>
<path d="M22.0137 7.16397C21.9745 7.14749 21.9375 7.12895 21.8983 7.11454C20.4691 6.2784 18.9451 5.70794 17.2893 5.53906C15.5161 5.35989 13.815 5.59879 12.4269 6.78503C10.4705 8.45524 9.91235 10.7289 9.97826 13.1837C10.0215 14.8704 10.386 16.518 10.9194 18.1202C10.8988 18.2005 12.3755 21.5101 12.4125 21.5348C12.4125 21.6501 13.9715 24.3356 14.0621 24.4839C14.958 25.9029 15.9898 27.2271 17.0545 28.5163C17.5653 29.1321 18.0389 29.8076 18.8153 30.4048C18.1316 29.0847 17.5179 27.917 16.9186 26.7431C15.8436 24.6343 14.9559 22.4512 14.0477 20.2744L14.0436 20.2682C13.1374 17.7022 12.9933 16.7898 12.8141 15.9928C12.429 14.2608 12.151 12.5165 12.6679 10.7618C13.0262 9.53645 13.7656 8.5994 14.9642 8.10719C16.7023 7.39668 18.4199 7.75091 20.1251 8.28431C20.7039 8.46554 23.1731 9.61883 23.5047 9.78358C24.7857 10.4179 28.2723 12.5288 28.2723 12.5288C28.2723 12.5288 24.1308 8.36256 22.0137 7.16397Z" fill="white"/>
<path d="M32.2409 11.4145C30.2371 7.75074 27.2468 5.1476 23.478 3.42178C20.2611 1.94722 16.9248 1.28819 13.3991 1.99664C8.40696 2.99959 4.79263 5.93636 2.05356 10.0964C2.02061 10.1603 1.94647 10.2324 2.05974 10.2818C2.0824 10.2921 2.14006 10.2221 2.18125 10.1871C3.60433 8.74957 5.08919 7.38416 6.79853 6.28029C9.91241 4.27027 13.2611 3.22613 16.9887 3.78836C21.7522 4.50711 25.6857 6.70866 28.7296 10.4589C29.7037 11.6596 30.581 12.9158 30.9229 14.4604C31.3142 16.2377 30.4554 17.7082 28.7255 18.2333C27.8523 18.501 26.9502 18.5958 26.0441 18.6102C23.4492 18.6432 20.9408 18.0871 18.4529 17.4363C16.8878 17.0285 13.3084 16.1533 13.3084 16.1533L13.3208 16.248C13.3208 16.248 13.3558 16.9503 13.5782 17.2345C13.6812 17.3622 13.8686 17.4734 14.0766 17.5599C16.204 18.4207 18.3314 19.2733 20.5515 19.8644C23.1258 20.5523 25.7248 21.0589 28.4124 20.6655C31.2153 20.2475 33.005 18.6102 33.3366 16.0112C33.5466 14.3657 33.0173 12.8355 32.2409 11.4145Z" fill="white"/>
<path d="M48.7473 5.19723C47.2666 5.0922 46.0618 5.58647 45.0547 6.93952C45.0547 6.53175 45.028 6.30315 45.0609 6.08073C45.1268 5.60706 44.9518 5.4629 44.474 5.48555C43.6317 5.52674 42.7873 5.51026 41.9429 5.49173C41.5866 5.48349 41.4178 5.54734 41.4198 5.96952C41.4363 9.6168 41.4342 13.2641 41.4198 16.9114C41.4198 17.3233 41.5599 17.4077 41.9347 17.3933C42.7564 17.3686 43.5822 17.3521 44.4019 17.3974C44.9168 17.4283 45.0733 17.2944 45.0753 16.7528C45.0815 14.8354 44.9497 12.916 45.1536 11.0028C45.3081 9.5509 46.1668 8.8198 47.6332 8.93924C47.9586 8.96808 48.076 8.896 48.1624 8.60767C48.4631 7.62326 48.7617 6.63679 49.1016 5.66473C49.2457 5.25696 49.0851 5.21988 48.7473 5.19723Z" fill="white"/>
<path d="M79.3323 2.15309C79.3384 1.70413 79.2025 1.58468 78.7721 1.59704C77.868 1.62793 76.9618 1.62175 76.0577 1.5991C75.6973 1.59086 75.582 1.71443 75.5861 2.07071C75.5944 7.04222 75.5944 12.0117 75.582 16.9832C75.5779 17.3477 75.7117 17.4507 76.0577 17.4424C76.9639 17.4198 77.87 17.4115 78.7741 17.4424C79.2149 17.4568 79.3323 17.3147 79.3323 16.8761C79.3075 14.4315 79.3199 11.989 79.3199 9.5465C79.3199 7.0834 79.3075 4.61825 79.3323 2.15309Z" fill="white"/>
<path d="M92.7681 8.14829C91.5015 6.198 89.8025 5.00146 87.4053 5.05912C86.8595 5.08384 86.3303 5.05294 85.8154 5.18887C83.828 5.71403 82.442 6.93322 81.5544 8.79084C80.294 11.4434 81.3279 14.9342 83.8218 16.5035C86.5218 18.2005 89.6542 17.7597 92.1647 16.0483C92.5312 15.7971 92.5024 15.5808 92.2882 15.2781C91.934 14.7612 91.588 14.2381 91.2503 13.7109C90.7519 12.9283 90.7539 12.9262 89.9384 13.4019C89.7942 13.4884 89.6501 13.577 89.4977 13.645C88.3918 14.1536 87.2797 14.4481 86.1181 13.7994C85.7124 13.5749 85.5786 13.4658 86.0872 13.1548C88.2517 11.8326 90.3832 10.4549 92.5436 9.12447C93.0008 8.84027 93.0214 8.53753 92.7681 8.14829ZM88.4268 8.7826C87.1561 9.57343 85.8813 10.354 84.5303 11.186C84.5138 10.0368 85.0472 9.26451 85.838 8.68375C86.6124 8.10711 87.498 8.03708 88.4062 8.39337C88.7254 8.51693 88.608 8.66933 88.4268 8.7826Z" fill="white"/>
<path d="M93.4539 22.5029C93.2706 21.0593 92.2203 20.3302 90.7663 20.4682C89.9508 20.5465 89.2794 20.8719 88.676 21.5412C88.8634 20.7133 88.4659 20.5485 87.8151 20.6433C87.7327 20.6597 87.6442 20.6597 87.5618 20.6433C87.0367 20.5568 86.9481 20.8121 86.9543 21.2858C86.981 23.3061 86.9646 25.3326 86.9646 27.355C86.9646 28.601 86.9646 28.5865 88.2044 28.5783C88.6018 28.5742 88.6986 28.4506 88.6945 28.0717C88.6677 26.7845 88.678 25.5015 88.6863 24.2143C88.6904 23.9404 88.7027 23.6624 88.7563 23.3988C88.9602 22.4679 89.7757 21.9036 90.7231 22.021C91.4995 22.1219 91.8187 22.5915 91.8187 23.6501C91.8207 24.894 91.8187 26.1358 91.8187 27.3818C91.8187 28.6257 91.8187 28.6257 93.0708 28.5639C93.1306 28.5598 93.1985 28.5557 93.2603 28.5598C93.4786 28.5721 93.561 28.4465 93.5589 28.2509C93.5177 26.3315 93.699 24.41 93.4539 22.5029Z" fill="white"/>
<path d="M73.2816 9.05464C73.2734 6.98696 72.1778 5.65038 70.1575 5.21789C68.4378 4.85131 66.7738 5.1973 65.1036 5.57623C64.8317 5.63802 64.7946 5.79659 64.7514 6.0149C64.5599 6.96018 64.3519 7.90135 64.1294 8.9702C64.4445 8.83634 64.6525 8.74161 64.8667 8.65717C65.9253 8.24116 67.0024 7.85398 68.1721 8.05169C69.3913 8.25557 69.8815 8.99492 69.6302 10.2265C67.7932 8.85075 65.1859 9.34914 63.8391 10.6981C62.5045 12.0326 62.3501 14.2774 63.4684 15.8694C64.7452 17.6817 66.9591 17.9823 69.8547 16.6849C69.7579 17.4304 70.2233 17.4098 70.7382 17.3872C71.3478 17.3707 71.9656 17.3872 72.5732 17.4304C73.0839 17.4654 73.3125 17.383 73.3022 16.7673C73.2569 14.1971 73.2857 11.6248 73.2816 9.05464ZM68.5181 14.8293C67.4884 15.0312 66.4957 14.5513 66.2898 13.7564C66.0365 12.7431 66.8273 11.9029 68.0321 11.907C68.9568 11.909 69.6302 12.4239 69.7188 13.19C69.8218 14.0488 69.3728 14.6605 68.5181 14.8293Z" fill="white"/>
<path d="M105.769 16.8206C104.651 15.2039 103.496 13.6099 102.466 11.9356C102.27 11.88 102.225 11.7276 102.202 11.5566C101.928 11.4042 101.856 11.1653 102.046 10.9306C102.396 10.496 102.625 9.9688 103.078 9.61457L103.076 9.62693C103.119 9.56927 103.162 9.50748 103.203 9.44776C103.912 8.28829 104.736 7.20708 105.537 6.10733C105.65 5.95493 105.817 5.80666 105.72 5.61101C105.629 5.43184 105.415 5.49568 105.259 5.49568C104.245 5.48332 103.234 5.49774 102.219 5.48332C101.865 5.4792 101.632 5.59865 101.445 5.90757C101.057 6.55218 100.613 7.15971 100.236 7.81462C99.935 8.34389 99.7125 8.16266 99.4819 7.79402C99.105 7.18854 98.7467 6.57483 98.378 5.96523C98.2112 5.68103 98.0135 5.4792 97.6366 5.48538C96.5451 5.50186 95.4495 5.48538 94.3497 5.4895C94.2097 5.4895 94.0326 5.44213 93.9481 5.59247C93.8555 5.74899 93.9976 5.8705 94.0758 5.98171C95.155 7.54071 96.23 9.10589 97.338 10.6443C97.616 11.0274 97.6366 11.2889 97.3545 11.6802C96.1332 13.3525 94.9532 15.0453 93.7587 16.73C93.631 16.9091 93.4477 17.0677 93.493 17.3313C93.5857 17.3437 93.6701 17.3622 93.7546 17.3622C94.531 17.3663 95.328 17.2757 96.092 17.389C97.3874 17.5846 98.1638 17.0862 98.6849 15.9124C98.9526 15.3151 99.278 14.6993 99.799 14.2133C100.376 15.1854 100.934 16.0936 101.471 17.0142C101.599 17.2345 101.741 17.3643 102.011 17.3684C103.168 17.3828 104.328 17.4116 105.487 17.4322C105.654 17.4322 105.864 17.4487 105.959 17.3045C106.091 17.0986 105.866 16.9668 105.769 16.8206Z" fill="white"/>
<path d="M77.108 23.6063C77.108 22.9494 77.036 22.3192 76.7868 21.724C76.4984 21.0279 76.0062 20.6057 75.2381 20.4966C74.0518 20.3277 73.0901 20.6696 72.4146 21.724C71.5908 20.1835 69.4139 19.9941 68.0938 21.5798C68.2401 20.6201 67.7273 20.614 67.1733 20.6737C67.1135 20.6819 67.0456 20.686 66.9838 20.6737C66.4895 20.5851 66.3927 20.8096 66.401 21.273C66.4278 23.3365 66.4133 25.4042 66.4133 27.4719C66.4133 28.6149 66.4133 28.5861 67.5502 28.582C68.0218 28.582 68.1062 28.409 68.0938 27.9909C68.0671 26.8129 68.0794 25.6308 68.0856 24.4507C68.0877 23.8947 68.1433 23.3571 68.4048 22.8567C68.7343 22.2224 69.3254 21.9217 69.9659 22.0576C70.5775 22.1853 70.8926 22.6487 70.8947 23.4375C70.9009 24.7679 70.8968 26.0962 70.8968 27.4246C70.8968 28.6046 70.8968 28.582 72.0645 28.5902C72.5381 28.5943 72.6102 28.4048 72.604 27.995C72.5834 26.6873 72.604 25.3775 72.6061 24.0759C72.6061 23.6908 72.6679 23.3283 72.8326 22.9761C73.1704 22.2636 73.7779 21.9217 74.4617 22.0741C75.0342 22.1977 75.3802 22.6837 75.3946 23.4745C75.4193 24.8049 75.4111 26.1312 75.4152 27.4637C75.4193 28.6129 75.4152 28.5902 76.5499 28.5984C76.9865 28.5984 77.1286 28.4769 77.1204 28.03C77.0895 26.5534 77.1163 25.0747 77.108 23.6063Z" fill="white"/>
<path d="M64.5722 20.6593C63.9956 20.6223 63.699 20.7932 63.5054 21.3534C63.145 22.3872 62.7105 23.3902 62.2924 24.4013C62.1112 24.8359 61.9917 25.3034 61.6849 25.7338C61.1288 24.4899 60.6078 23.2934 60.0744 22.1051C59.3721 20.5481 59.368 20.5481 57.5433 20.7087C58.3733 22.3954 59.1641 24.0203 59.9817 25.6411C60.9064 27.4864 60.9105 27.4823 60.062 29.3152C59.6151 30.2872 59.6193 30.2378 60.6963 30.3017C61.3368 30.3408 61.6025 30.1163 61.8476 29.5417C62.935 26.8994 64.0883 24.2757 65.2148 21.6458C65.6205 20.6964 65.6164 20.7293 64.5722 20.6593Z" fill="white"/>
<path d="M98.4192 27.0995C97.4698 27.1778 97.0311 26.7247 97.0147 25.7567C96.9982 24.9186 97.0105 24.0742 97.0105 23.2277C97.0105 22.0703 97.0105 22.0765 98.1535 22.0642C98.3512 22.06 98.5881 22.1713 98.7178 21.9262C99.0288 21.3557 98.6643 20.7152 98.0156 20.7132C97.0105 20.7111 97.0188 20.7111 97.0105 19.7308C97.0002 18.7608 97.1362 18.8947 96.1826 18.8864C95.26 18.8782 95.26 18.8823 95.26 19.8152C95.26 20.0047 95.2538 20.1942 95.26 20.3775C95.2683 20.5649 95.2415 20.7152 95.0005 20.6967C94.3642 20.6534 94.5825 21.1353 94.568 21.4443C94.5536 21.7326 94.4404 22.128 94.9841 22.0683C95.2827 22.0353 95.26 22.2516 95.26 22.4452C95.26 23.0815 95.26 23.7076 95.26 24.3398C95.26 24.3398 95.2662 24.3398 95.2703 24.3398C95.2703 24.9762 95.2374 25.6064 95.2744 26.2387C95.365 27.8244 96.2156 28.6214 97.7767 28.6338C98.792 28.6441 98.7796 28.6441 98.9135 27.6473C98.9588 27.2437 98.9341 27.048 98.4192 27.0995Z" fill="white"/>
<path d="M80.8542 25.8473C82.4296 24.8814 83.9742 23.8599 85.5353 22.8631C85.7515 22.721 85.9904 22.6304 85.7083 22.3071C84.7939 21.2444 83.7333 20.4783 82.442 20.5051C79.9027 20.501 78.1192 22.1423 78.0574 24.4057C78.008 26.15 78.7268 27.4969 80.2981 28.2589C82.0239 29.1012 83.7003 28.8561 85.2161 27.6884C85.8998 27.1591 85.8483 27.1674 85.2655 26.531C84.8824 26.1212 84.6518 26.0491 84.1802 26.4631C83.1299 27.3898 81.7747 27.4166 80.8295 26.6608C80.467 26.3621 80.3331 26.1686 80.8542 25.8473ZM80.086 24.7784C79.7503 24.9967 79.6988 24.8361 79.6988 24.5375C79.7071 23.5242 80.1416 22.7396 81.0148 22.2474C81.8859 21.7552 82.7468 21.8664 83.6612 22.4863C82.4255 23.2853 81.2516 24.0267 80.086 24.7784Z" fill="white"/>
<path d="M54.7466 13.1363C56.9193 11.7668 59.0838 10.389 61.2689 9.04212C61.6251 8.82382 61.689 8.65288 61.4748 8.30072C60.2453 6.22686 58.4598 5.07357 56.4292 5.02002C53.2411 5.0262 50.8089 6.7376 49.981 9.26866C49.1037 11.9562 49.9707 14.7797 52.2238 16.3305C55.1935 18.3879 58.3012 17.7042 60.9435 15.9413C61.2071 15.7621 61.0917 15.5994 60.9682 15.414C60.5316 14.7447 60.0723 14.0898 59.6666 13.404C59.4092 12.9674 59.2362 12.9201 58.7831 13.2352C57.5763 14.0713 56.2582 14.477 54.8043 13.8427C54.6148 13.7603 54.3491 13.6985 54.3368 13.4823C54.3244 13.2846 54.5921 13.2352 54.7466 13.1363ZM53.2288 11.1304C53.099 10.321 53.6098 9.25424 54.4459 8.68378C55.3356 8.08036 56.285 8.08448 57.3703 8.54579C55.9102 9.45813 54.5736 10.2901 53.2288 11.1304Z" fill="white"/>
<path d="M57.1623 23.0215C57.1561 21.7076 56.3879 20.8055 55.107 20.5172C53.9825 20.2804 52.8889 20.4699 51.7913 20.6737C51.6039 20.7046 51.4309 20.7705 51.3794 21.0033C51.297 21.3863 51.192 21.755 51.0952 22.1421C51.4061 22.2142 51.61 22.0762 51.8222 22.0103C52.5121 21.792 53.2102 21.6808 53.9351 21.7652C55.0472 21.9032 55.5147 22.5417 55.3212 23.6785C52.8931 22.7579 51.4885 22.9391 50.64 24.286C49.9378 25.4043 50.1087 26.9242 51.0375 27.8344C52.1723 28.9527 53.7436 28.9321 55.5951 27.6717C55.2985 28.5573 55.7372 28.6253 56.3015 28.5697C56.3982 28.5573 56.5074 28.5511 56.6124 28.5697C57.0511 28.6356 57.1808 28.4564 57.1747 28.0116C57.1479 26.3496 57.1705 24.6855 57.1623 23.0215ZM53.6674 27.3731C52.6274 27.369 51.8798 26.7223 51.886 25.8285C51.8901 24.9553 52.6315 24.3066 53.6242 24.3045C54.6642 24.2963 55.4179 24.9368 55.4262 25.8285C55.4303 26.7573 54.7219 27.3772 53.6674 27.3731Z" fill="white"/>
<path d="M48.8072 22.0515C48.2408 21.2586 47.4747 20.7664 46.5315 20.5687C45.1887 20.2845 44.0066 20.5996 43.0366 21.7179C42.946 20.6326 42.946 20.6635 41.9513 20.6449C41.4385 20.6388 41.2799 20.7809 41.2861 21.3204C41.319 23.8927 41.2984 26.4629 41.2984 29.0351C41.2984 30.3511 41.2964 30.3429 42.5979 30.3017C42.9316 30.2893 43.0284 30.1925 43.0201 29.8671C42.9995 29.1154 43.0139 28.3617 43.0139 27.4926C44.816 29.0639 46.7848 29.1216 48.3314 27.7191C49.8266 26.3681 50.0428 23.7732 48.8072 22.0515ZM45.3967 27.1198C44.0643 27.1116 42.9975 25.9974 42.9975 24.6176C42.9975 23.2069 44.0807 22.068 45.4276 22.0639C46.7601 22.0598 47.8969 23.2151 47.9134 24.5908C47.9319 26.0057 46.8157 27.1322 45.3967 27.1198Z" fill="white"/>
<path d="M104.311 24.2427C103.741 24.0285 103.16 23.837 102.598 23.6125C102.252 23.4786 101.939 23.2912 101.97 22.8464C102.007 22.4098 102.291 22.1874 102.678 22.0473C103.366 21.8023 104.008 21.9958 104.624 22.2698C104.927 22.4057 105.084 22.3974 105.182 22.07C105.238 21.8908 105.312 21.7096 105.407 21.5489C105.592 21.2441 105.516 21.0856 105.186 20.9291C104.2 20.4595 103.172 20.3215 102.114 20.5419C100.991 20.7787 100.238 21.6684 100.194 22.7434C100.149 23.8617 100.61 24.4569 101.852 24.8708C102.351 25.0356 102.857 25.1777 103.339 25.3898C103.65 25.5196 103.897 25.7605 103.891 26.1621C103.871 26.5658 103.667 26.815 103.312 26.9838C102.717 27.268 102.139 27.2207 101.543 26.9921C100.664 26.6502 100.658 26.6605 100.256 27.5255C100.248 27.5461 100.24 27.5666 100.227 27.5769C100.042 27.8447 100.093 28.0053 100.407 28.1454C101.144 28.479 101.9 28.7055 102.705 28.7096C103.352 28.7138 103.963 28.582 104.525 28.2504C105.341 27.7747 105.759 27.0518 105.73 26.1127C105.695 25.1942 105.178 24.5743 104.311 24.2427Z" fill="white"/>
</svg>
