<svg width="24" height="24" viewBox="0 0 24 24" fill="none" xmlns="http://www.w3.org/2000/svg">
<g clip-path="url(#clip0_709_1368)">
<path d="M23.9089 15.0644C23.6418 13.8866 22.7234 12.9141 21.5637 12.5756C20.6556 12.3102 19.7931 12.4227 19.0715 12.781C18.7261 12.9519 18.7588 13.4579 19.1239 13.5799L21.1358 14.2534C21.9073 14.5283 22.4305 15.3316 22.244 16.231C22.1143 16.8581 21.6109 17.3822 20.9889 17.5325C19.9761 17.7765 19.0612 17.1176 18.8799 16.1984L20.2974 16.6915C20.7467 16.8401 21.2321 16.597 21.3824 16.1477C21.5327 15.6967 21.2888 15.2096 20.8369 15.0601L0.88313 8.57149C0.809249 8.54228 0.729355 8.52338 0.644307 8.52338C0.288649 8.52338 0 8.81203 0 9.16768C0 9.44345 0.174392 9.67454 0.41837 9.76646L7.73168 12.299V17.493C7.73168 18.3392 8.2497 19.1244 9.08301 19.2739C9.75223 19.3941 10.3562 19.1201 10.7307 18.6536L14.2658 14.5919L17.154 15.597C17.1454 15.6864 17.1283 15.774 17.1283 15.865C17.1283 17.7602 18.6694 19.3013 20.5637 19.3013C22.72 19.3013 24.4184 17.3057 23.9089 15.0644ZM9.40087 17.5987V17.5772L9.41719 17.5583L9.40087 17.5763L9.42062 12.9055L12.5313 13.988L9.40087 17.5987Z" fill="#5A730E"/>
<path d="M23.1684 4.69791H5.93278C5.47489 4.69791 5.1012 5.07246 5.1012 5.52949V5.58361C5.1012 6.0415 5.47489 6.41606 5.93278 6.41606H6.14669L6.71454 9.02507C6.77897 9.32145 6.99546 9.56199 7.28325 9.65735L15.7512 12.4665C16.3671 12.671 17.0458 12.5103 17.5054 12.0507L22.994 6.41606H23.1684C23.6263 6.41606 24 6.0415 24 5.58447V5.52949C24.0009 5.07246 23.6263 4.69791 23.1684 4.69791Z" fill="#5A730E"/>
</g>
<defs>
<clipPath id="clip0_709_1368">
<rect width="24" height="24" fill="white"/>
</clipPath>
</defs>
</svg>
