<svg width="24" height="24" viewBox="0 0 24 24" fill="none" xmlns="http://www.w3.org/2000/svg">
<g clip-path="url(#clip0_201_895)">
<path d="M23.9089 15.0643C23.6418 13.8865 22.7234 12.9141 21.5637 12.5756C20.6556 12.3101 19.7931 12.4227 19.0715 12.7809C18.7261 12.9519 18.7588 13.4578 19.1239 13.5798L21.1358 14.2534C21.9073 14.5283 22.4305 15.3315 22.244 16.2309C22.1143 16.8581 21.6109 17.3821 20.9889 17.5324C19.9761 17.7764 19.0612 17.1175 18.8799 16.1983L20.2974 16.6914C20.7467 16.84 21.2321 16.5969 21.3824 16.1476C21.5327 15.6966 21.2888 15.2095 20.8369 15.06L0.88313 8.57142C0.809249 8.54222 0.729355 8.52332 0.644307 8.52332C0.288649 8.52332 0 8.81196 0 9.16762C0 9.44339 0.174392 9.67448 0.41837 9.7664L7.73168 12.299V17.4929C7.73168 18.3391 8.2497 19.1243 9.08301 19.2738C9.75223 19.3941 10.3562 19.12 10.7307 18.6535L14.2658 14.5918L17.154 15.5969C17.1454 15.6863 17.1283 15.7739 17.1283 15.865C17.1283 17.7601 18.6694 19.3013 20.5637 19.3013C22.72 19.3013 24.4184 17.3056 23.9089 15.0643ZM9.40087 17.5986V17.5771L9.41719 17.5582L9.40087 17.5763L9.42062 12.9055L12.5313 13.9879L9.40087 17.5986Z" fill="white"/>
<path d="M23.1684 4.69788H5.93278C5.47489 4.69788 5.1012 5.07243 5.1012 5.52946V5.58358C5.1012 6.04147 5.47489 6.41603 5.93278 6.41603H6.14669L6.71454 9.02504C6.77897 9.32142 6.99546 9.56196 7.28325 9.65732L15.7512 12.4665C16.3671 12.671 17.0458 12.5103 17.5054 12.0507L22.994 6.41603H23.1684C23.6263 6.41603 24 6.04147 24 5.58444V5.52946C24.0009 5.07243 23.6263 4.69788 23.1684 4.69788Z" fill="white"/>
</g>
<defs>
<clipPath id="clip0_201_895">
<rect width="24" height="24" fill="white"/>
</clipPath>
</defs>
</svg>
