<svg width="80" height="80" viewBox="0 0 80 80" fill="none" xmlns="http://www.w3.org/2000/svg">
<g opacity="0.2">
<path d="M79.6965 58.2145C78.8059 54.2885 75.7447 51.0469 71.8789 49.9187C68.8521 49.0338 65.977 49.409 63.5716 50.6031C62.4204 51.1729 62.5293 52.8596 63.7463 53.2662L70.4528 55.5113C73.0243 56.4276 74.7682 59.1051 74.1468 62.1032C73.7144 64.1936 72.0364 65.9404 69.9631 66.4416C66.587 67.2548 63.5372 65.0584 62.933 61.9944L67.6579 63.6381C69.1556 64.1335 70.7735 63.3231 71.2746 61.8255C71.7758 60.3221 70.9625 58.6984 69.4563 58.2002L2.94377 36.5715C2.6975 36.4741 2.43118 36.4111 2.14769 36.4111C0.962165 36.4111 0 37.3733 0 38.5588C0 39.478 0.581308 40.2483 1.39457 40.5547L25.7723 48.9966V66.3098C25.7723 69.1305 27.499 71.7478 30.2767 72.246C32.5074 72.6469 34.5205 71.7335 35.769 70.1785L47.5527 56.6395L57.1801 59.9899C57.1514 60.2877 57.0942 60.5798 57.0942 60.8833C57.0942 67.2004 62.2314 72.3377 68.5457 72.3377C75.7333 72.3377 81.3946 65.6856 79.6965 58.2145ZM31.3362 66.6621V66.5905L31.3906 66.5275L31.3362 66.5876L31.4021 51.0183L41.7711 54.6264L31.3362 66.6621Z" fill="#1A383F"/>
<path d="M77.228 23.6597H19.7759C18.2496 23.6597 17.0039 24.9082 17.0039 26.4316V26.612C17.0039 28.1383 18.2496 29.3868 19.7759 29.3868H20.4889L22.3817 38.0836C22.5965 39.0715 23.3181 39.8733 24.2774 40.1912L52.5038 49.5551C54.557 50.2366 56.8192 49.7011 58.3512 48.1691L76.6467 29.3868H77.228C78.7543 29.3868 79.9999 28.1383 79.9999 26.6149V26.4316C80.0028 24.9082 78.7543 23.6597 77.228 23.6597Z" fill="#1A383F"/>
<circle cx="58.9999" cy="25" r="12.6" fill="white" stroke="#1A383F" stroke-width="2"/>
<path d="M64.3506 20.8478C64.6815 20.5168 64.6815 19.9802 64.3506 19.6493V19.6493C64.0196 19.3183 63.483 19.3183 63.1521 19.6493L58.9998 23.8015L54.8476 19.6493C54.5166 19.3183 53.98 19.3183 53.6491 19.6493V19.6493C53.3181 19.9802 53.3181 20.5168 53.6491 20.8478L57.8013 25L53.6491 29.1523C53.3181 29.4832 53.3181 30.0198 53.6491 30.3508V30.3508C53.98 30.6817 54.5166 30.6817 54.8476 30.3508L58.9998 26.1985L63.1521 30.3508C63.483 30.6817 64.0196 30.6817 64.3506 30.3508V30.3508C64.6815 30.0198 64.6815 29.4832 64.3506 29.1523L60.1983 25L64.3506 20.8478Z" fill="#1A383F"/>
</g>
</svg>
