<svg width="64" height="64" viewBox="0 0 64 64" fill="none" xmlns="http://www.w3.org/2000/svg">
<g clip-path="url(#clip0_198_228)">
<path d="M49.9205 3.40607H30.2703C29.0266 3.40607 27.8322 3.90119 26.9522 4.78116L1.37451 30.3542C-0.45817 32.1869 -0.45817 35.1576 1.37451 36.9926L21.0248 56.6429C22.8574 58.4756 25.8282 58.4756 27.6609 56.6429L53.2386 31.0699C54.1186 30.1876 54.6137 28.9932 54.6137 27.7471V8.09922C54.6137 5.50625 52.5135 3.40607 49.9205 3.40607ZM41.7075 19.8321C39.7645 19.8321 38.1876 18.2552 38.1876 16.3122C38.1876 14.3693 39.7645 12.7924 41.7075 12.7924C43.6505 12.7924 45.2274 14.3693 45.2274 16.3122C45.2274 18.2552 43.6505 19.8321 41.7075 19.8321Z" fill="#5A730E"/>
<path d="M59.3069 8.09921L59.3045 29.9435C59.3045 31.0253 58.8751 32.0648 58.1078 32.8298L32.1171 58.8205L32.516 59.2194C34.3487 61.0521 37.3194 61.0521 39.1521 59.2194L62.6226 35.7536C63.5049 34.8737 64 33.6793 64 32.4356V12.7924C64 10.1994 61.8998 8.09921 59.3069 8.09921Z" fill="#5A730E"/>
</g>
<defs>
<clipPath id="clip0_198_228">
<rect width="64" height="64" fill="white"/>
</clipPath>
</defs>
</svg>
