<svg width="20" height="15" viewBox="0 0 20 15" fill="none" xmlns="http://www.w3.org/2000/svg">
<path d="M8 10.2459L13.19 7.21882L8 4.1917V10.2459ZM19.56 2.34515C19.69 2.8194 19.78 3.4551 19.84 4.26233C19.91 5.06957 19.94 5.7658 19.94 6.37123L20 7.21882C20 9.42863 19.84 11.0532 19.56 12.0925C19.31 13.0006 18.73 13.5859 17.83 13.8381C17.36 13.9693 16.5 14.0601 15.18 14.1207C13.88 14.1913 12.69 14.2216 11.59 14.2216L10 14.2821C5.81 14.2821 3.2 14.1207 2.17 13.8381C1.27 13.5859 0.69 13.0006 0.44 12.0925C0.31 11.6182 0.22 10.9826 0.16 10.1753C0.0900001 9.36808 0.0599999 8.67184 0.0599999 8.06642L0 7.21882C0 5.00902 0.16 3.38447 0.44 2.34515C0.69 1.43702 1.27 0.851772 2.17 0.599511C2.64 0.468336 3.5 0.377522 4.82 0.316979C6.12 0.246346 7.31 0.216075 8.41 0.216075L10 0.155533C14.19 0.155533 16.8 0.31698 17.83 0.599511C18.73 0.851772 19.31 1.43702 19.56 2.34515Z" fill="#FF0000"/>
</svg>
