<svg width="18" height="22" viewBox="0 0 18 22" fill="none" xmlns="http://www.w3.org/2000/svg">
<path fill-rule="evenodd" clip-rule="evenodd" d="M6.87574 1.22361C8.213 0.55498 9.787 0.55498 11.1243 1.22361L16.2298 3.77639C17.1615 4.24222 17.75 5.19444 17.75 6.23607V13.783C17.75 15.4208 16.9063 16.943 15.5175 17.811L10.4575 20.9735C9.5658 21.5308 8.4342 21.5308 7.5425 20.9735L2.4825 17.811C1.09369 16.943 0.25 15.4208 0.25 13.783V6.23607C0.25 5.19444 0.83851 4.24222 1.77016 3.77639L6.87574 1.22361ZM12.5303 9.5303C12.8232 9.2374 12.8232 8.76256 12.5303 8.46967C12.2374 8.17678 11.7626 8.17678 11.4697 8.46967L8 11.9393L6.53033 10.4697C6.23744 10.1768 5.76256 10.1768 5.46967 10.4697C5.17678 10.7626 5.17678 11.2374 5.46967 11.5303L7.4697 13.5303C7.6103 13.671 7.8011 13.75 8 13.75C8.1989 13.75 8.3897 13.671 8.5303 13.5303L12.5303 9.5303Z" fill="#5A730E"/>
</svg>
