<svg width="20" height="22" viewBox="0 0 20 22" fill="none" xmlns="http://www.w3.org/2000/svg">
<path d="M7.04 20.7131C8 21.0057 8.97 21.1772 10 21.1772C12.6522 21.1772 15.1957 20.1141 17.0711 18.2218C18.9464 16.3295 20 13.7629 20 11.0868C20 9.76171 19.7413 8.44959 19.2388 7.22536C18.7362 6.00114 17.9997 4.88878 17.0711 3.9518C16.1425 3.01482 15.0401 2.27156 13.8268 1.76447C12.6136 1.25738 11.3132 0.996384 10 0.996384C8.68678 0.996384 7.38642 1.25738 6.17317 1.76447C4.95991 2.27156 3.85752 3.01482 2.92893 3.9518C1.05357 5.84412 0 8.41065 0 11.0868C0 15.3752 2.67 19.0582 6.44 20.5112C6.35 19.7242 6.26 18.4225 6.44 17.5245L7.59 12.5398C7.59 12.5398 7.3 11.9546 7.3 11.0263C7.3 9.63378 8.16 8.59447 9.14 8.59447C10 8.59447 10.4 9.23016 10.4 10.0475C10.4 10.9153 9.83 12.1564 9.54 13.3471C9.37 14.3359 10.06 15.2037 11.06 15.2037C12.84 15.2037 14.22 13.2865 14.22 10.5823C14.22 8.16058 12.5 6.50575 10.03 6.50575C7.21 6.50575 5.55 8.62474 5.55 10.8547C5.55 11.7225 5.83 12.6004 6.29 13.1755C6.38 13.2361 6.38 13.3168 6.35 13.4681L6.06 14.568C6.06 14.7395 5.95 14.8001 5.78 14.679C4.5 14.1139 3.76 12.2775 3.76 10.7942C3.76 7.60561 6 4.70966 10.32 4.70966C13.76 4.70966 16.44 7.20199 16.44 10.5116C16.44 13.9827 14.31 16.7677 11.26 16.7677C10.29 16.7677 9.34 16.243 9 15.6275L8.33 18.0189C8.1 18.8867 7.47 20.0471 7.04 20.7433V20.7131Z" fill="#C8232C"/>
</svg>
