<svg width="21" height="21" viewBox="0 0 21 21" fill="none" xmlns="http://www.w3.org/2000/svg">
<path d="M7.65402 2.76429L9.05223 5.14286H6.10714C5.2192 5.14286 4.5 4.42366 4.5 3.53571C4.5 2.64777 5.2192 1.92857 6.10714 1.92857H6.19554C6.7942 1.92857 7.35268 2.24598 7.65402 2.76429ZM2.57143 3.53571C2.57143 4.11429 2.71205 4.66071 2.95714 5.14286H1.28571C0.574554 5.14286 0 5.71741 0 6.42857V9C0 9.71116 0.574554 10.2857 1.28571 10.2857H19.2857C19.9969 10.2857 20.5714 9.71116 20.5714 9V6.42857C20.5714 5.71741 19.9969 5.14286 19.2857 5.14286H17.6143C17.8594 4.66071 18 4.11429 18 3.53571C18 1.58304 16.417 0 14.4643 0H14.3759C13.0942 0 11.9049 0.679018 11.254 1.78393L10.2857 3.43527L9.31741 1.78795C8.66652 0.679018 7.47723 0 6.19554 0H6.10714C4.15446 0 2.57143 1.58304 2.57143 3.53571ZM16.0714 3.53571C16.0714 4.42366 15.3522 5.14286 14.4643 5.14286H11.5192L12.9174 2.76429C13.2228 2.24598 13.7772 1.92857 14.3759 1.92857H14.4643C15.3522 1.92857 16.0714 2.64777 16.0714 3.53571ZM1.28571 11.5714V18.6429C1.28571 19.7076 2.14955 20.5714 3.21429 20.5714H9V11.5714H1.28571ZM11.5714 20.5714H17.3571C18.4219 20.5714 19.2857 19.7076 19.2857 18.6429V11.5714H11.5714V20.5714Z" fill="#5A730E"/>
</svg>
