<svg width="19" height="18" viewBox="0 0 19 18" fill="none" xmlns="http://www.w3.org/2000/svg">
<path d="M7.54975 10.3868C8.66308 11.5162 10.0102 12.3881 11.4964 12.9414L13.5071 11.3414C13.5667 11.3004 13.6374 11.2784 13.7098 11.2784C13.7821 11.2784 13.8528 11.3004 13.9124 11.3414L17.6458 13.7468C17.7875 13.832 17.9075 13.949 17.9962 14.0885C18.085 14.2281 18.14 14.3863 18.1571 14.5508C18.1742 14.7153 18.1528 14.8815 18.0946 15.0363C18.0364 15.1911 17.943 15.3303 17.8218 15.4428L16.0724 17.1708C15.8219 17.4183 15.514 17.6 15.1762 17.6995C14.8384 17.7991 14.4811 17.8135 14.1364 17.7414C10.6976 17.0312 7.52796 15.3678 4.98975 12.9414C2.50788 10.4909 0.790432 7.37282 0.0457524 3.96543C-0.0278123 3.62604 -0.0124584 3.2734 0.0903263 2.94169C0.193111 2.60997 0.379841 2.31043 0.632419 2.0721L2.44575 0.322767C2.55797 0.207454 2.69481 0.11902 2.84604 0.0640887C2.99728 0.00915688 3.15898 -0.0108498 3.31904 0.00556662C3.4791 0.0219831 3.63337 0.0743973 3.7703 0.158885C3.90724 0.243372 4.02328 0.357743 4.10975 0.493434L6.59509 4.17877C6.63795 4.23664 6.66109 4.30675 6.66109 4.37877C6.66109 4.45079 6.63795 4.5209 6.59509 4.57877L4.95775 6.54677C5.52606 8.00327 6.41148 9.31499 7.54975 10.3868Z" fill="#5A730E"/>
</svg>
