<svg width="22" height="18" viewBox="0 0 22 18" fill="none" xmlns="http://www.w3.org/2000/svg">
<path d="M21.46 2.46654C20.69 2.8197 19.86 3.05178 19 3.16278C19.88 2.62799 20.56 1.78039 20.88 0.761259C20.05 1.26578 19.13 1.61894 18.16 1.82075C17.37 0.952977 16.26 0.448456 15 0.448456C12.65 0.448456 10.73 2.38582 10.73 4.77724C10.73 5.12032 10.77 5.4533 10.84 5.76611C7.28004 5.58448 4.11004 3.85902 2.00004 1.2456C1.63004 1.88129 1.42004 2.62799 1.42004 3.41504C1.42004 4.91851 2.17004 6.25045 3.33004 7.00723C2.62004 7.00723 1.96004 6.80542 1.38004 6.50271V6.53298C1.38004 8.63178 2.86004 10.3875 4.82004 10.781C4.19077 10.9548 3.53013 10.979 2.89004 10.8517C3.16165 11.7119 3.69358 12.4645 4.41106 13.0039C5.12854 13.5432 5.99549 13.8422 6.89004 13.8586C5.37367 15.0699 3.49404 15.7247 1.56004 15.7153C1.22004 15.7153 0.880039 15.6951 0.540039 15.6547C2.44004 16.8857 4.70004 17.6022 7.12004 17.6022C15 17.6022 19.33 11.003 19.33 5.28177C19.33 5.09005 19.33 4.90842 19.32 4.7167C20.16 4.11128 20.88 3.34441 21.46 2.46654Z" fill="#00ACEE"/>
</svg>
