<svg width="92" height="32" viewBox="0 0 92 32" fill="none" xmlns="http://www.w3.org/2000/svg">
<path d="M37.4246 3.19775L33.1236 28.5595H40.0024L44.3069 3.19775H37.4246Z" fill="white"/>
<path d="M27.356 3.22653L20.6187 20.5225L19.9004 17.911C18.5717 14.7643 14.7997 10.2452 10.3713 7.39719L16.5318 28.5474L23.8104 28.535L34.6434 3.22119L27.356 3.22653Z" fill="white"/>
<path d="M17.2889 5.0414C16.8891 3.49651 15.7302 3.03607 14.2918 2.98096H3.62691L3.53845 3.48585C11.8379 5.50896 17.3296 10.3836 19.6084 16.245L17.2889 5.0414Z" fill="white"/>
<path d="M58.2483 8.06096C60.4988 8.0254 62.13 8.51963 63.3968 9.03163L64.0178 9.32496L64.9484 3.82807C63.5861 3.31429 61.4506 2.76318 58.7861 2.76318C51.9888 2.76318 47.1977 6.20318 47.1605 11.133C47.1163 14.7756 50.5734 16.8094 53.1848 18.0236C55.8651 19.2681 56.7639 20.0592 56.7515 21.1703C56.7303 22.8681 54.6143 23.6467 52.6381 23.6467C49.8834 23.6467 48.4202 23.2645 46.1609 22.3187L45.2745 21.9134L44.3068 27.5898C45.9168 28.2992 48.8873 28.909 51.9711 28.941C59.2019 28.941 63.901 25.5418 63.9505 20.2743C63.9806 17.3925 62.1459 15.1934 58.1705 13.389C55.7643 12.2121 54.2923 11.4298 54.3065 10.2423C54.3065 9.18807 55.5555 8.06096 58.2483 8.06096Z" fill="white"/>
<path d="M82.6019 3.22656H77.2871C75.6364 3.22656 74.4086 3.67812 73.6832 5.33145L63.4694 28.5741H70.6932C70.6932 28.5741 71.8715 25.4488 72.1386 24.7643C72.9295 24.7643 79.948 24.775 80.9476 24.775C81.1529 25.6603 81.7863 28.5741 81.7863 28.5741H88.1679L82.6019 3.22656ZM74.1184 19.5732C74.6846 18.1172 76.859 12.4852 76.859 12.4852C76.8218 12.5546 77.4198 11.0186 77.7754 10.0639L78.239 12.2506C78.239 12.2506 79.557 18.3057 79.833 19.5732H74.1184Z" fill="white"/>
</svg>
